<?xml version="1.0" encoding="utf-8"?>
<svg xmlns="http://www.w3.org/2000/svg" xmlns:xlink="http://www.w3.org/1999/xlink">
   <symbol fill="none" xmlns="http://www.w3.org/2000/svg" viewBox="0 0 15 17" id="location">
    <path d="M7.07143 0C8.94689 0 10.7455 0.745023 12.0717 2.07117C13.3978 3.39732 14.1429 5.19597 14.1429 7.07143C14.1429 9.999 11.9114 13.0664 7.54286 16.3429C7.40685 16.4449 7.24143 16.5 7.07143 16.5C6.90142 16.5 6.736 16.4449 6.6 16.3429C2.23143 13.0664 0 9.999 0 7.07143C0 5.19597 0.745023 3.39732 2.07117 2.07117C3.39732 0.745023 5.19597 0 7.07143 0ZM7.07143 1.57143C5.61274 1.57143 4.21379 2.15089 3.18234 3.18234C2.15089 4.21379 1.57143 5.61274 1.57143 7.07143C1.57143 9.20071 3.23557 11.6569 6.63771 14.3833L7.07143 14.7259L7.50514 14.3833C10.9073 11.6569 12.5714 9.20071 12.5714 7.07143C12.5714 5.61274 11.992 4.21379 10.9605 3.18234C9.92907 2.15089 8.53012 1.57143 7.07143 1.57143ZM7.07143 5.5C7.4882 5.5 7.8879 5.66556 8.1826 5.96026C8.4773 6.25496 8.64286 6.65466 8.64286 7.07143C8.64286 7.4882 8.4773 7.8879 8.1826 8.1826C7.8879 8.4773 7.4882 8.64286 7.07143 8.64286C6.65466 8.64286 6.25496 8.4773 5.96026 8.1826C5.66556 7.8879 5.5 7.4882 5.5 7.07143C5.5 6.65466 5.66556 6.25496 5.96026 5.96026C6.25496 5.66556 6.65466 5.5 7.07143 5.5Z" fill="#737373"></path>
  </symbol>
  
  <symbol fill="none" xmlns="http://www.w3.org/2000/svg" viewBox="0 0 16 16" id="time">
    <path d="M8 0C3.5888 0 0 3.5888 0 8C0 12.4112 3.5888 16 8 16C12.4112 16 16 12.4112 16 8C16 3.5888 12.4112 0 8 0ZM8 14.4C4.4712 14.4 1.6 11.5288 1.6 8C1.6 4.4712 4.4712 1.6 8 1.6C11.5288 1.6 14.4 4.4712 14.4 8C14.4 11.5288 11.5288 14.4 8 14.4Z" fill="#737373"></path>
    <path d="M8.79922 4H7.19922V8.8H11.9992V7.2H8.79922V4Z" fill="#737373"></path>
  </symbol>
  
  <symbol fill="none" xmlns="http://www.w3.org/2000/svg" viewBox="0 0 20 20" id="phone">
    <path d="M18.5043 4.62488C15.5125 -0.000152887 9.40435 -1.37516 4.6674 1.49986C0.0551144 4.37488 -1.44076 10.6249 1.55099 15.25L1.80031 15.625L0.803054 19.375L4.54275 18.375L4.91672 18.625C6.53725 19.5 8.28244 20 10.0276 20C11.8975 20 13.7673 19.5 15.3879 18.5C20.0002 15.5 21.3714 9.37492 18.5043 4.62488ZM15.8865 14.25C15.3879 15 14.7646 15.5 13.892 15.625C13.3934 15.625 12.7701 15.875 10.2769 14.875C8.15779 13.875 6.4126 12.2499 5.16603 10.3749C4.41809 9.49992 4.04412 8.37491 3.91947 7.2499C3.91947 6.2499 4.29344 5.37489 4.91672 4.74988C5.16603 4.49988 5.41534 4.37488 5.66466 4.37488H6.28794C6.53725 4.37488 6.78656 4.37488 6.91122 4.87488C7.16053 5.49989 7.78382 6.9999 7.78382 7.1249C7.90847 7.2499 7.90847 7.49991 7.78382 7.62491C7.90847 7.87491 7.78382 8.12491 7.65916 8.24991C7.5345 8.37491 7.40985 8.62491 7.28519 8.74991C7.03588 8.87492 6.91122 9.12492 7.03588 9.37492C7.5345 10.1249 8.15779 10.8749 8.78107 11.4999C9.52901 12.1249 10.2769 12.6249 11.1495 12.9999C11.3989 13.1249 11.6482 13.1249 11.7728 12.8749C11.8975 12.6249 12.5208 11.9999 12.7701 11.7499C13.0194 11.4999 13.144 11.4999 13.3934 11.6249L15.3879 12.6249C15.6372 12.7499 15.8865 12.8749 16.0111 12.9999C16.1358 13.3749 16.1358 13.875 15.8865 14.25Z" fill="#737373"></path>
  </symbol>
  
  <symbol fill="none" xmlns="http://www.w3.org/2000/svg" viewBox="0 0 198 58" id="logo">
    <g clip-path="url(#clip0_9473_402)">
      <path d="M35.3043 7.27953C41.2119 20.1369 47.1671 32.9943 53.1224 45.9462C53.3129 45.7571 53.4559 45.6153 53.5988 45.4735C55.3615 42.8264 56.6479 40.0375 57.5054 36.9649C58.2677 34.2706 58.6488 31.5289 58.5536 28.7873C58.4106 22.4531 56.4097 16.6862 52.5507 11.6284C50.2638 8.60309 47.453 6.14506 44.2133 4.207C41.6883 2.69436 38.9727 1.51262 36.0189 0.898113C35.5425 0.803574 35.0661 0.709034 34.5896 0.614495C34.2561 0.519955 34.0656 0.661764 33.9227 0.945383C32.684 3.35614 31.4453 5.7669 30.2066 8.22493C28.0627 12.4319 25.9188 16.5917 23.8226 20.7987C22.2027 23.9658 20.5829 27.1801 18.9631 30.3472C17.0574 34.0815 15.1517 37.8631 13.1984 41.5974C11.8168 44.339 10.4352 47.0807 9.0059 49.8223C8.76769 50.295 8.81533 50.5786 9.24411 50.9095C10.1017 51.5713 10.9592 52.2803 11.7691 52.9421C12.055 53.1785 12.1979 53.1312 12.3885 52.8003C13.7701 50.0587 15.1041 47.317 16.4857 44.5754C18.3914 40.7465 20.3447 36.8704 22.2504 33.0416C24.156 29.1654 26.1094 25.3366 28.015 21.4605C30.0637 17.3953 32.1123 13.3301 34.1132 9.21759C34.4467 8.55582 34.7326 7.94131 35.0661 7.27953C35.209 7.27953 35.2566 7.27953 35.3043 7.27953Z" fill="#262626"></path>
      <path d="M5.43095 46.088C5.81209 45.379 6.14558 44.7172 6.52672 44.0082C9.09939 38.903 11.6721 33.7979 14.2447 28.74C16.4839 24.2967 18.6754 19.8533 20.9146 15.41C23.1538 10.9193 25.4406 6.42871 27.6798 1.89082C27.918 1.46539 28.1562 0.992691 28.3467 0.567263C28.5373 0.141835 28.442 -0.0472436 27.9656 0.0472959C26.2029 0.283645 24.3925 0.425454 22.6297 0.803612C18.0084 1.79628 13.9589 3.87615 10.3381 6.85414C6.71729 9.83214 4.00169 13.5192 2.14366 17.8207C1.04789 20.3733 0.333263 23.0204 -0.000230551 25.762C-0.286082 28.551 -0.286082 31.2926 0.190337 34.0815C0.809683 37.7686 2.09602 41.172 4.00169 44.3391C4.28755 44.859 4.62104 45.3317 4.95453 45.8044C5.04982 45.9462 5.09746 46.088 5.1451 46.2299C5.28803 46.1826 5.38331 46.1353 5.43095 46.088Z" fill="#262626"></path>
      <path d="M48.166 49.4914C46.7844 46.5134 45.4028 43.4882 44.0212 40.4629H24.5356C23.3922 42.7318 22.2011 45.0008 21.1054 47.317C19.8667 49.8223 18.7233 52.3749 17.5322 54.9274C17.1987 55.6365 17.294 55.731 18.0086 55.9674C19.5332 56.4401 21.0101 57.0073 22.5823 57.3382C25.4408 58 28.347 58.1891 31.3008 57.8582C32.6347 57.7164 33.9687 57.6218 35.255 57.2909C37.1607 56.771 39.0664 56.1092 40.9244 55.3056C43.5447 54.1711 45.8316 52.5167 47.9278 50.6732C48.2613 50.2477 48.4042 50.0114 48.166 49.4914Z" fill="#C2C2C4"></path>
      <path d="M41.6386 35.216C40.5905 32.8525 39.4947 30.5363 38.4466 28.1728C37.3509 25.8093 36.3027 23.4931 35.207 21.1296C35.1117 20.8933 34.9688 20.6569 34.7782 20.326C34.3018 21.2242 33.9206 21.9805 33.5395 22.7368C33.1584 23.4931 32.7772 24.2967 32.3485 25.053C30.6333 28.4564 28.9182 31.8599 27.2031 35.216H41.6386Z" fill="#CA0100"></path>
      <path d="M79.7537 14.7946C80.7065 14.7946 81.2782 15.0782 81.85 16.1654L87.9005 27.0847C88.0434 27.321 87.9958 27.5101 87.6623 27.5101H85.3278C85.0896 27.5101 84.9943 27.4629 84.899 27.2738L83.6127 24.9103H74.9895L73.7032 27.2738C73.6079 27.4629 73.5126 27.5101 73.2744 27.5101H70.8923C70.5588 27.5101 70.5112 27.321 70.6541 27.0847L76.657 16.1654C77.2763 15.0782 77.8004 14.7946 78.5627 14.7946H79.7537ZM76.1806 22.8304H82.4693L79.5631 17.4889C79.5155 17.3944 79.4679 17.3471 79.3726 17.3471H79.2773C79.182 17.3471 79.1344 17.3944 79.0867 17.4889L76.1806 22.8304Z" fill="#262626"></path>
      <path d="M100.574 14.7954C103.099 14.7954 104.052 15.7881 104.052 17.7734V18.6243C104.052 19.6642 103.671 20.4205 102.861 20.9405C103.718 21.4132 104.147 22.2168 104.147 23.304V24.3439C104.147 26.282 103.337 27.511 100.907 27.511H89.9975C89.6163 27.511 89.4258 27.3219 89.4258 26.9438V15.3154C89.4258 14.9372 89.6163 14.7482 89.9975 14.7482H100.574V14.7954ZM92.2843 20.0897H99.8117C101.003 20.0897 101.384 19.7115 101.384 19.0024V18.3879C101.384 17.6316 101.003 17.3007 100.05 17.3007H92.5702C92.4272 17.3007 92.3319 17.3953 92.3319 17.5371L92.2843 20.0897ZM92.2843 22.075V24.7694C92.2843 24.9112 92.3796 25.0057 92.5225 25.0057H100.05C101.003 25.0057 101.384 24.6748 101.384 23.9185V23.2095C101.384 22.4531 101.003 22.075 99.8117 22.075H92.2843Z" fill="#262626"></path>
      <path d="M119.536 14.7954C119.822 14.7954 119.917 14.9372 119.917 15.1736V16.9698C119.917 17.2535 119.774 17.3953 119.536 17.3953H111.389C109.483 17.3953 108.959 17.9625 108.959 19.8533V22.4531C108.959 24.3912 109.531 24.9584 111.389 24.9584H119.536C119.822 24.9584 119.917 25.1002 119.917 25.3366V27.1328C119.917 27.4165 119.774 27.511 119.536 27.511H111.294C107.578 27.511 106.148 26.1875 106.148 22.6895V19.5697C106.148 16.0717 107.578 14.7482 111.294 14.7482L119.536 14.7954Z" fill="#262626"></path>
      <path d="M136.211 14.7954C137.164 14.7954 137.735 15.079 138.307 16.1662L144.358 27.0855C144.5 27.3219 144.453 27.511 144.119 27.511H141.785C141.547 27.511 141.451 27.4637 141.356 27.2746L140.07 24.9111H131.447L130.16 27.2746C130.065 27.4637 129.97 27.511 129.731 27.511H127.349C127.016 27.511 126.968 27.3219 127.111 27.0855L133.209 16.2135C133.829 15.1263 134.353 14.8427 135.115 14.8427H136.211V14.7954ZM132.638 22.8313H138.926L136.02 17.4898C135.973 17.3952 135.925 17.348 135.83 17.348H135.734C135.639 17.348 135.591 17.3952 135.544 17.4898L132.638 22.8313Z" fill="#262626"></path>
      <path d="M147.548 14.7954C147.834 14.7954 147.929 14.9372 147.929 15.1736V22.4531C147.929 24.3912 148.501 24.9584 150.359 24.9584H155.456C157.362 24.9584 157.886 24.3912 157.886 22.4531V15.1736C157.886 14.8899 158.029 14.7954 158.267 14.7954H160.268C160.554 14.7954 160.649 14.9372 160.649 15.1736V22.6895C160.649 26.1874 159.22 27.511 155.504 27.511H150.216C146.5 27.511 145.07 26.1874 145.07 22.6895V15.1736C145.07 14.8899 145.213 14.7954 145.499 14.7954H147.548Z" fill="#262626"></path>
      <path d="M177.038 14.7954C177.324 14.7954 177.467 14.9372 177.467 15.1736V16.9698C177.467 17.2534 177.324 17.3952 177.038 17.3952H171.273V27.1328C171.273 27.4164 171.13 27.511 170.892 27.511H168.891C168.605 27.511 168.51 27.3692 168.51 27.1328V17.3952H162.745C162.459 17.3952 162.316 17.2534 162.316 16.9698V15.1736C162.316 14.8899 162.459 14.7954 162.745 14.7954H177.038Z" fill="#262626"></path>
      <path d="M189.377 14.7954C193.093 14.7954 194.523 16.119 194.523 19.6169V22.7367C194.523 26.2347 193.093 27.5582 189.377 27.5582H183.708C179.992 27.5582 178.562 26.2347 178.562 22.7367V19.6169C178.562 16.119 179.992 14.7954 183.708 14.7954H189.377ZM181.373 22.5477C181.373 24.4384 181.945 25.0057 183.803 25.0057H189.234C191.14 25.0057 191.664 24.4384 191.664 22.5477V19.806C191.664 17.9152 191.092 17.348 189.234 17.348H183.803C181.897 17.348 181.373 17.9152 181.373 19.806V22.5477Z" fill="#262626"></path>
      <path d="M76.179 35.8778C77.9417 35.8778 78.5611 36.4923 78.5611 38.1468V39.6121C78.5611 41.2666 77.8941 41.8811 76.179 41.8811H73.511C71.7959 41.8811 71.1289 41.2666 71.1289 39.6121V38.1468C71.1289 36.4923 71.7959 35.8778 73.511 35.8778H76.179ZM72.4629 39.5176C72.4629 40.4157 72.7011 40.6521 73.6063 40.6521H76.1313C77.0365 40.6521 77.2747 40.3684 77.2747 39.5176V38.2413C77.2747 37.3432 77.0365 37.1068 76.1313 37.1068H73.6063C72.7011 37.1068 72.4629 37.3904 72.4629 38.2413V39.5176Z" fill="#737373"></path>
      <path d="M83.755 35.4524C83.8979 35.4524 83.9456 35.4997 83.9456 35.6415V37.1541H85.0413C86.5659 37.1541 87.0899 37.6268 87.0899 38.9031V40.1321C87.0899 41.3611 86.6135 41.8338 85.0413 41.8338H83.9456V43.5355C83.9456 43.6773 83.8979 43.7246 83.755 43.7246H82.8974C82.7545 43.7246 82.7069 43.6773 82.7069 43.5355V41.8338H81.6111C80.0866 41.8338 79.5625 41.3611 79.5625 40.1321V38.9031C79.5625 37.6741 80.0389 37.1541 81.6111 37.1541H82.7069V35.6415C82.7069 35.4997 82.7545 35.4524 82.8974 35.4524H83.755ZM80.8012 39.943C80.8012 40.6521 80.9918 40.8884 81.754 40.8884H82.7545V38.194H81.754C81.0394 38.194 80.8012 38.4304 80.8012 39.1394V39.943ZM83.9456 38.194V40.8884H84.946C85.7083 40.8884 85.8989 40.6521 85.8989 39.943V39.1394C85.8989 38.4304 85.7083 38.194 84.946 38.194H83.9456Z" fill="#737373"></path>
      <path d="M89.0911 37.2014C89.234 37.2014 89.2817 37.2487 89.2817 37.3905V40.6521C89.2817 40.6994 89.3293 40.7466 89.3293 40.7466H89.4246C89.4722 40.7466 89.5199 40.7466 89.5199 40.6994L92.0925 37.7214C92.3784 37.3432 92.569 37.2014 93.1407 37.2014H93.6171C94.1411 37.2014 94.3793 37.3905 94.3793 38.0995V41.692C94.3793 41.8339 94.3317 41.8811 94.1888 41.8811H93.3312C93.1883 41.8811 93.1407 41.8339 93.1407 41.692V38.4304C93.1407 38.3832 93.1407 38.3359 93.093 38.3359H92.9977C92.9501 38.3359 92.9024 38.3359 92.9024 38.3832L90.3298 41.3612C89.9963 41.7393 89.8534 41.8811 89.2817 41.8811H88.8052C88.2812 41.8811 88.043 41.692 88.043 40.983V37.3905C88.043 37.2487 88.0906 37.2014 88.2335 37.2014H89.0911Z" fill="#737373"></path>
      <path d="M96.5239 37.2014C96.6668 37.2014 96.7145 37.2487 96.7145 37.3905V40.6994C96.7145 40.8412 96.7621 40.8885 96.9051 40.8885H100.621V37.4378C100.621 37.296 100.669 37.2487 100.812 37.2487H101.669C101.812 37.2487 101.86 37.296 101.86 37.4378V40.8885H103.003C103.146 40.8885 103.194 40.9357 103.194 41.0775V43.2992C103.194 43.441 103.146 43.4883 103.003 43.4883H102.336C102.193 43.4883 102.146 43.441 102.146 43.2992V41.8811H96.3334C95.7616 41.8811 95.5234 41.6448 95.5234 41.1721V37.4378C95.5234 37.296 95.5711 37.2487 95.714 37.2487L96.5239 37.2014Z" fill="#737373"></path>
      <path d="M104.954 37.2014C105.097 37.2014 105.144 37.2487 105.144 37.3905V40.6521C105.144 40.6994 105.192 40.7466 105.192 40.7466H105.287C105.335 40.7466 105.382 40.7466 105.382 40.6994L107.955 37.7214C108.241 37.3432 108.431 37.2014 109.003 37.2014H109.48C110.004 37.2014 110.242 37.3905 110.242 38.0995V41.692C110.242 41.8339 110.194 41.8811 110.051 41.8811H109.194C109.051 41.8811 109.003 41.8339 109.003 41.692V38.4304C109.003 38.3832 109.003 38.3359 108.956 38.3359H108.908C108.86 38.3359 108.813 38.3359 108.813 38.3832L106.24 41.3612C105.906 41.7393 105.764 41.8811 105.192 41.8811H104.715C104.191 41.8811 103.953 41.692 103.953 40.983V37.3905C103.953 37.2487 104.001 37.2014 104.144 37.2014H104.954Z" fill="#737373"></path>
      <path d="M115.15 37.2014C116.675 37.2014 117.199 37.6741 117.199 38.9504V41.2193C117.199 41.7866 117.056 41.8811 116.58 41.8811H112.482C111.482 41.8811 111.148 41.503 111.148 40.6521V40.2267C111.148 39.5176 111.434 39.0922 112.482 39.0922H115.96V38.9504C115.96 38.3832 115.77 38.1941 115.007 38.1941H111.434C111.339 38.1941 111.291 38.1468 111.291 38.0523V37.3432C111.291 37.2487 111.339 37.2014 111.434 37.2014H115.15ZM115.96 40.6048V39.8485H112.816C112.482 39.8485 112.339 39.9903 112.339 40.274V40.463C112.339 40.7466 112.482 40.8885 112.816 40.8885H115.722C115.913 40.9357 115.96 40.8412 115.96 40.6048Z" fill="#737373"></path>
      <path d="M123.344 37.2014C123.868 37.2014 124.058 37.4378 124.058 37.8632V41.6448C124.058 41.7866 124.011 41.8339 123.868 41.8339H123.01C122.867 41.8339 122.82 41.7866 122.82 41.6448V38.3832C122.82 38.2886 122.772 38.2414 122.677 38.2414H120.819C120.628 38.2414 120.628 38.3359 120.58 38.4305C120.485 38.9032 120.342 40.274 120.009 41.0303C119.77 41.5503 119.485 41.8339 118.77 41.8339H117.96C117.865 41.8339 117.77 41.7866 117.77 41.6448V41.0303C117.77 40.8885 117.817 40.8412 117.96 40.8412H118.579C118.818 40.8412 119.008 40.7939 119.199 40.3213C119.389 39.8486 119.532 38.9977 119.675 37.7214C119.723 37.3905 119.866 37.1542 120.39 37.1542H123.344V37.2014Z" fill="#737373"></path>
      <path d="M126.154 37.2014C126.297 37.2014 126.344 37.2487 126.344 37.3905V38.6195H129.584C130.775 38.6195 131.251 39.0922 131.251 39.9431V40.5103C131.251 41.4084 130.775 41.8339 129.584 41.8339H125.344C125.201 41.8339 125.105 41.7393 125.105 41.5975V37.3905C125.105 37.2487 125.153 37.2014 125.296 37.2014H126.154ZM126.344 39.5176V40.7939C126.344 40.8412 126.392 40.8885 126.439 40.8885H129.346C129.87 40.8885 130.06 40.6994 130.06 40.3685V40.0376C130.06 39.6594 129.87 39.5176 129.346 39.5176H126.344Z" fill="#737373"></path>
      <path d="M133.255 37.2014C133.398 37.2014 133.446 37.2487 133.446 37.3905V38.9977H137.352V37.3905C137.352 37.2487 137.4 37.2014 137.543 37.2014H138.4C138.543 37.2014 138.591 37.2487 138.591 37.3905V41.692C138.591 41.8339 138.543 41.8811 138.4 41.8811H137.543C137.4 41.8811 137.352 41.8339 137.352 41.692V39.9903H133.446V41.692C133.446 41.8339 133.398 41.8811 133.255 41.8811H132.398C132.255 41.8811 132.207 41.8339 132.207 41.692V37.3905C132.207 37.2487 132.255 37.2014 132.398 37.2014H133.255Z" fill="#737373"></path>
      <path d="M140.685 37.2014C140.828 37.2014 140.875 37.2487 140.875 37.3905V38.6195H144.115C145.306 38.6195 145.783 39.0922 145.783 39.9431V40.5103C145.783 41.4084 145.306 41.8339 144.115 41.8339H139.875C139.732 41.8339 139.637 41.7393 139.637 41.5975V37.3905C139.637 37.2487 139.684 37.2014 139.827 37.2014H140.685ZM140.875 39.5176V40.7939C140.875 40.8412 140.923 40.8885 140.971 40.8885H143.877C144.401 40.8885 144.591 40.6994 144.591 40.3685V40.0376C144.591 39.6594 144.401 39.5176 143.877 39.5176H140.875ZM147.498 37.2014C147.641 37.2014 147.688 37.2487 147.688 37.3905V41.692C147.688 41.8339 147.641 41.8811 147.498 41.8811H146.64C146.497 41.8811 146.45 41.8339 146.45 41.692V37.3905C146.45 37.2487 146.497 37.2014 146.64 37.2014H147.498Z" fill="#737373"></path>
      <path d="M149.786 37.2014C149.929 37.2014 149.977 37.2486 149.977 37.3904V40.6521C149.977 40.6993 150.025 40.7466 150.025 40.7466H150.12C150.168 40.7466 150.215 40.7466 150.215 40.6993L152.788 37.7213C153.074 37.3432 153.264 37.2014 153.836 37.2014H154.312C154.836 37.2014 155.075 37.3904 155.075 38.0995V41.692C155.075 41.8338 155.027 41.8811 154.884 41.8811H154.027C153.884 41.8811 153.836 41.8338 153.836 41.692V38.4304C153.836 38.3831 153.836 38.3358 153.788 38.3358H153.693C153.645 38.3358 153.598 38.3358 153.598 38.3831L151.025 41.3611C150.692 41.7393 150.549 41.8811 149.977 41.8811H149.501C148.976 41.8811 148.738 41.692 148.738 40.9829V37.3904C148.738 37.2486 148.786 37.2014 148.929 37.2014H149.786ZM149.882 35.2633C149.882 35.1688 149.929 35.0742 150.025 35.0742C150.072 35.0742 150.168 35.1215 150.263 35.1688C150.453 35.3106 151.073 35.8305 151.93 35.8305C152.788 35.8305 153.407 35.3106 153.598 35.1688C153.693 35.1215 153.741 35.0742 153.788 35.0742C153.884 35.0742 153.931 35.1688 153.931 35.2633V35.6887C153.931 35.8305 153.931 35.9251 153.788 36.0196C153.502 36.256 152.693 36.6341 151.883 36.6341C151.073 36.6341 150.31 36.3032 149.977 36.0196C149.834 35.8778 149.786 35.7833 149.786 35.6887V35.2633H149.882Z" fill="#737373"></path>
      <path d="M164.459 37.2014C164.983 37.2014 165.174 37.4378 165.174 37.8632V40.8412H166.317C166.46 40.8412 166.508 40.8885 166.508 41.0303V43.252C166.508 43.3938 166.46 43.4411 166.317 43.4411H165.603C165.46 43.4411 165.412 43.3938 165.412 43.252V41.8339H159.79V43.252C159.79 43.3938 159.743 43.4411 159.6 43.4411H158.933C158.79 43.4411 158.742 43.3938 158.742 43.252V41.0303C158.742 40.8885 158.79 40.8412 158.933 40.8412H159.647C159.886 40.8412 160.076 40.7939 160.267 40.3213C160.457 39.8486 160.6 38.9977 160.743 37.7214C160.791 37.3905 160.934 37.1542 161.458 37.1542H164.459V37.2014ZM163.935 40.8412V38.3832C163.935 38.2886 163.888 38.2414 163.792 38.2414H161.934C161.744 38.2414 161.744 38.3359 161.696 38.4305C161.648 38.9032 161.458 40.0376 161.22 40.8412H163.935Z" fill="#737373"></path>
      <path d="M168.271 37.2014C168.414 37.2014 168.461 37.2487 168.461 37.3905V40.6521C168.461 40.6994 168.509 40.7466 168.509 40.7466H168.604C168.652 40.7466 168.7 40.7466 168.7 40.6994L171.272 37.7214C171.558 37.3432 171.749 37.2014 172.32 37.2014H172.797C173.321 37.2014 173.559 37.3905 173.559 38.0995V41.692C173.559 41.8339 173.511 41.8811 173.368 41.8811H172.511C172.368 41.8811 172.32 41.8339 172.32 41.692V38.4304C172.32 38.3832 172.32 38.3359 172.273 38.3359H172.177C172.13 38.3359 172.082 38.3359 172.082 38.3832L169.509 41.3612C169.176 41.7393 169.033 41.8811 168.461 41.8811H167.985C167.461 41.8811 167.223 41.692 167.223 40.983V37.3905C167.223 37.2487 167.27 37.2014 167.413 37.2014H168.271Z" fill="#737373"></path>
      <path d="M179.848 37.2014C180.372 37.2014 180.562 37.4378 180.562 37.8632V41.6448C180.562 41.7866 180.515 41.8339 180.372 41.8339H179.514C179.371 41.8339 179.323 41.7866 179.323 41.6448V38.3832C179.323 38.2886 179.276 38.2414 179.181 38.2414H177.323C177.132 38.2414 177.132 38.3359 177.084 38.4305C176.989 38.9032 176.846 40.274 176.513 41.0303C176.274 41.5503 175.989 41.8339 175.274 41.8339H174.464C174.369 41.8339 174.273 41.7866 174.273 41.6448V41.0303C174.273 40.8885 174.321 40.8412 174.464 40.8412H175.083C175.322 40.8412 175.512 40.7939 175.703 40.3213C175.893 39.8486 176.036 38.9977 176.179 37.7214C176.227 37.3905 176.37 37.1542 176.894 37.1542H179.848V37.2014Z" fill="#737373"></path>
      <path d="M186.042 37.2014C187.233 37.2014 187.519 37.5796 187.519 38.6195V39.4231C187.519 39.8013 187.376 39.8958 187.043 39.8958H182.707V40.0849C182.707 40.6049 182.898 40.8412 183.66 40.8412H187.233C187.329 40.8412 187.376 40.8885 187.376 40.983V41.6921C187.376 41.7866 187.329 41.8339 187.233 41.8339H183.517C181.993 41.8339 181.469 41.3612 181.469 40.1322V38.9032C181.469 37.6741 181.945 37.1542 183.517 37.1542L186.042 37.2014ZM182.707 39.0922H186.185C186.281 39.0922 186.328 39.045 186.328 38.9504V38.5723C186.328 38.2414 186.185 38.0996 185.804 38.0996H183.66C182.898 38.0996 182.707 38.3359 182.707 38.8559V39.0922Z" fill="#737373"></path>
      <path d="M192.853 37.2014C194.378 37.2014 194.902 37.6741 194.902 38.9504V40.1794C194.902 41.4085 194.426 41.8812 192.853 41.8812H189.614V43.5829C189.614 43.7247 189.566 43.7719 189.423 43.7719H188.566C188.423 43.7719 188.375 43.7247 188.375 43.5829V38.9032C188.375 37.6741 188.851 37.1542 190.424 37.1542L192.853 37.2014ZM189.614 40.8412H192.71C193.473 40.8412 193.663 40.6049 193.663 39.8958V39.1395C193.663 38.4305 193.473 38.1941 192.71 38.1941H190.567C189.852 38.1941 189.614 38.4305 189.614 39.1395V40.8412Z" fill="#737373"></path>
    </g>
    <defs>
      <clipPath id="clip0_9473_402">
        <rect width="198" height="58" fill="white"></rect>
      </clipPath>
    </defs>
  </symbol>
  
  <symbol fill="none" xmlns="http://www.w3.org/2000/svg" viewBox="0 0 31 31" id="red-phone">
    <circle cx="15.5" cy="15.5" r="15.5" fill="#CA0100"></circle>
    <path d="M23.6889 19.7226L21.9151 18.54L20.3383 17.489C20.034 17.2865 19.625 17.3529 19.4004 17.6412L18.4247 18.8956C18.2151 19.1677 17.838 19.246 17.5375 19.0796C16.8754 18.7113 16.0925 18.3645 14.3651 16.6349C12.6377 14.9053 12.2887 14.1246 11.9204 13.4625C11.754 13.162 11.8323 12.7849 12.1044 12.5754L13.3588 11.5997C13.6471 11.375 13.7135 10.9661 13.5111 10.6617L12.4923 9.13348L11.2774 7.31112C11.0706 7.00094 10.6567 6.90781 10.337 7.09953L8.93591 7.94008C8.55726 8.16318 8.27892 8.52342 8.15855 8.94614C7.77539 10.3431 7.69814 13.4247 12.6368 18.3634C17.5755 23.3021 20.6569 23.2246 22.0538 22.8414C22.4766 22.7211 22.8368 22.4427 23.0599 22.0641L23.9004 20.663C24.0922 20.3433 23.9991 19.9294 23.6889 19.7226Z" fill="white"></path>
  </symbol>
  
  <symbol fill="none" xmlns="http://www.w3.org/2000/svg" viewBox="0 0 12 8" id="select-arrow">
    <path d="M5.92832 7.42016C5.71582 7.42016 5.50335 7.33805 5.34134 7.17416L0.24323 2.01438C-0.0810766 1.68616 -0.0810766 1.154 0.24323 0.825904C0.567405 0.497811 1.09311 0.497811 1.41744 0.825904L5.92832 5.39156L10.4392 0.826063C10.7635 0.49797 11.2892 0.49797 11.6133 0.826063C11.9378 1.15416 11.9378 1.68632 11.6133 2.01454L6.51529 7.17432C6.3532 7.33823 6.14073 7.42016 5.92832 7.42016Z" fill="#737373"></path>
  </symbol>
 
  <symbol fill="none" xmlns="http://www.w3.org/2000/svg" viewBox="0 0 26 23" id="fav">
    <path d="M2.7752 11.5622L13 22L23.2248 11.5622C24.3614 10.4019 25 8.82813 25 7.18718C25 3.7701 22.2864 1 18.9391 1C17.3316 1 15.79 1.65186 14.6534 2.81218L13 4.5L11.3466 2.81218C10.21 1.65186 8.66837 1 7.06092 1C3.71356 1 1 3.7701 1 7.18718C1 8.82813 1.63856 10.4019 2.7752 11.5622Z" stroke="#737373" stroke-width="2" stroke-linecap="round" stroke-linejoin="round"></path>
  </symbol>
  
  <symbol fill="none" xmlns="http://www.w3.org/2000/svg" viewBox="0 0 19 23" id="filter">
    <path d="M11.7667 19C11.7667 20.6569 13.1098 22 14.7667 22H15C16.6569 22 18 20.6569 18 19V11.6364C18 9.97951 16.6569 8.63636 15 8.63636H14.7667C13.1098 8.63636 11.7667 9.97951 11.7667 11.6364V19Z" stroke="#737373" stroke-width="2" stroke-linecap="round" stroke-linejoin="round"></path>
    <path d="M1 19C1 20.6569 2.34314 22 4 22H4.23333C5.89019 22 7.23333 20.6569 7.23333 19V4C7.23333 2.34315 5.89019 1 4.23333 1H4C2.34315 1 1 2.34315 1 4V19Z" stroke="#737373" stroke-width="2" stroke-linecap="round" stroke-linejoin="round"></path>
  </symbol>
  
  <symbol fill="none" xmlns="http://www.w3.org/2000/svg" viewBox="0 0 23 23" id="search">
    <path d="M22 22L15.3397 15.3397M9.4 17.8C4.76081 17.8 1 14.0392 1 9.4C1 4.76081 4.76081 1 9.4 1C14.0392 1 17.8 4.76081 17.8 9.4C17.8 14.0392 14.0392 17.8 9.4 17.8Z" stroke="#737373" stroke-width="2" stroke-linecap="round" stroke-linejoin="round"></path>
  </symbol>

    <symbol fill="none" xmlns="http://www.w3.org/2000/svg" viewBox="0 0 12 13" id="mob-phone">
    <path d="M11.1657 10.0099L9.90331 9.17078L8.78109 8.42499C8.56451 8.28132 8.27346 8.32842 8.11357 8.53304L7.41916 9.4231C7.27 9.61624 7.00167 9.67174 6.78777 9.55366C6.31659 9.29234 5.7594 9.04629 4.53001 7.81896C3.30061 6.59164 3.05226 6.03768 2.79016 5.56789C2.67173 5.35462 2.72739 5.08709 2.92111 4.93839L3.81381 4.24604C4.01902 4.08665 4.06628 3.79645 3.92218 3.5805L3.19715 2.49606L2.33252 1.20295C2.18536 0.982843 1.89076 0.916764 1.66324 1.0528L0.666083 1.64925C0.396599 1.80755 0.198505 2.06318 0.112836 2.36313C-0.159851 3.35439 -0.214829 5.54106 3.30001 9.04549C6.81485 12.5499 9.00783 12.4949 10.002 12.223C10.3029 12.1376 10.5593 11.9401 10.718 11.6714L11.3162 10.6772C11.4527 10.4504 11.3864 10.1567 11.1657 10.0099Z" fill="#CA0100"></path>
  </symbol>
  
  <symbol fill="none" xmlns="http://www.w3.org/2000/svg" viewBox="0 0 34 34" id="swiper-prev">
    <g clip-path="url(#clip0_1565_19366)">
      <path d="M8.00741 15.3168L22.6269 0.697834C23.5569 -0.23259 25.0647 -0.23259 25.9942 0.697834C26.9238 1.62743 26.9238 3.13515 25.9942 4.06467L13.0582 17.0003L25.9938 29.9354C26.9234 30.8654 26.9234 32.3729 25.9938 33.3025C25.0642 34.2325 23.5565 34.2325 22.6265 33.3025L8.00703 18.6833C7.54223 18.2183 7.31009 17.6094 7.31009 17.0003C7.31009 16.3909 7.54268 15.7816 8.00741 15.3168Z" fill="#262626"></path>
    </g>
    <defs>
      <clipPath id="clip0_1565_19366">
        <rect width="34" height="34" fill="white" transform="translate(34 34) rotate(-180)"></rect>
      </clipPath>
    </defs>
  </symbol>
  
  <symbol fill="none" xmlns="http://www.w3.org/2000/svg" viewBox="0 0 34 34" id="swiper-next">
    <g clip-path="url(#clip0_1565_19362)">
      <path d="M25.9926 15.3168L11.3731 0.697834C10.4431 -0.23259 8.93532 -0.23259 8.00579 0.697834C7.07619 1.62743 7.07619 3.13515 8.00579 4.06467L20.9418 17.0003L8.00617 29.9354C7.07657 30.8654 7.07657 32.3729 8.00617 33.3025C8.93577 34.2325 10.4435 34.2325 11.3735 33.3025L25.993 18.6833C26.4578 18.2183 26.6899 17.6094 26.6899 17.0003C26.6899 16.3909 26.4573 15.7816 25.9926 15.3168Z" fill="#262626"></path>
    </g>
    <defs>
      <clipPath id="clip0_1565_19362">
        <rect width="34" height="34" fill="white" transform="matrix(1 -8.74228e-08 -8.74228e-08 -1 0 34)"></rect>
      </clipPath>
    </defs>
  </symbol>
</svg>